<?xml version="1.0" standalone="no"?><!DOCTYPE svg PUBLIC "-//W3C//DTD SVG 1.1//EN" "http://www.w3.org/Graphics/SVG/1.1/DTD/svg11.dtd"><svg t="1770449605988" class="icon" viewBox="0 0 1024 1024" version="1.1" xmlns="http://www.w3.org/2000/svg" p-id="22006" xmlns:xlink="http://www.w3.org/1999/xlink" width="200" height="200"><path d="M512 520m-120 0a120 120 0 1 0 240 0 120 120 0 1 0-240 0Z" fill="#f4ea2a" p-id="22007"></path><path d="M576 848a16 16 0 0 0-16 16v26.112c0-1.248-0.208-0.992-2.272 0.16-4.176 2.336-10.576 3.824-17.696 3.824h-88.064c-7.088 0-13.472-1.488-17.68-3.824-2.08-1.136-2.288-1.408-2.288-0.16V864a16 16 0 0 0-32 0v26.112c0 22.464 24.4 36 51.968 36h88.064c27.616 0 51.968-13.568 51.968-36V864a16 16 0 0 0-16-16z" fill="#f4ea2a" p-id="22008"></path><path d="M912 368m-16 0a16 16 0 1 0 32 0 16 16 0 1 0-32 0Z" fill="#f4ea2a" p-id="22009"></path><path d="M896 640m-16 0a16 16 0 1 0 32 0 16 16 0 1 0-32 0Z" fill="#f4ea2a" p-id="22010"></path><path d="M688 128m-16 0a16 16 0 1 0 32 0 16 16 0 1 0-32 0Z" fill="#f4ea2a" p-id="22011"></path><path d="M304 144m-16 0a16 16 0 1 0 32 0 16 16 0 1 0-32 0Z" fill="#f4ea2a" p-id="22012"></path><path d="M96 368m-16 0a16 16 0 1 0 32 0 16 16 0 1 0-32 0Z" fill="#f4ea2a" p-id="22013"></path><path d="M112 640m-16 0a16 16 0 1 0 32 0 16 16 0 1 0-32 0Z" fill="#f4ea2a" p-id="22014"></path><path d="M496 512m-48 0a48 48 0 1 0 96 0 48 48 0 1 0-96 0Z" fill="#f4ea2a" p-id="22015"></path><path d="M496 368a144 144 0 0 0-89.184 257.072 16.016 16.016 0 0 0 19.84-25.12 112 112 0 1 1 141.696-2.448 16 16 0 0 0 20.672 24.416A144 144 0 0 0 496 368z" fill="#f4ea2a" p-id="22016"></path><path d="M592 804.624C592 818.8 575.008 832 552.048 832h-112.112C417.04 832 400 818.832 400 804.624v-40.512a16 16 0 0 0-32 0v40.512C368 838.56 400.912 864 439.952 864h112.112C591.184 864 624 838.48 624 804.624v-42.608a16 16 0 0 0-32 0v42.608z" fill="#f4ea2a" p-id="22017"></path><path d="M502.592 208C339.904 208 208 339.504 208 501.76c0 115.216 67.12 218.304 169.952 266.24a16 16 0 1 0 13.52-29.008C299.808 696.256 240 604.416 240 501.76 240 357.2 357.552 240 502.592 240c145.04 0 262.592 117.2 262.592 261.76 0 105.52-63.216 199.472-158.784 240.512a16 16 0 0 0 12.624 29.392c107.216-46.048 178.16-151.472 178.16-269.92C797.2 339.504 665.28 208 502.592 208zM944.224 501.968H864a16 16 0 0 0 0 32h80.224a16 16 0 0 0 0-32zM128.224 496H48a16 16 0 0 0 0 32h80.224a16 16 0 0 0 0-32z" fill="#f4ea2a" p-id="22018"></path><path d="M544.224 768H448a16 16 0 0 0 0 32h96.224a16 16 0 0 0 0-32zM512 161.712a16 16 0 0 0 16-16V69.968a16 16 0 0 0-32 0v75.744a16 16 0 0 0 16 16zM216.4 263.744l-61.088-61.088a15.984 15.984 0 1 0-22.624 22.624l61.088 61.088a15.984 15.984 0 1 0 22.624-22.624zM875.312 202.656a15.984 15.984 0 0 0-22.624 0l-61.088 61.088a15.984 15.984 0 1 0 22.624 22.624l61.088-61.088a15.984 15.984 0 0 0 0-22.624z" fill="#f4ea2a" p-id="22019"></path><path d="M512 640a16 16 0 0 0-32 0v80a16 16 0 0 0 32 0v-80z" fill="#f4ea2a" p-id="22020"></path></svg>